<mxfile host="app.diagrams.net" modified="2023-01-22T14:51:42.117Z" agent="5.0 (Windows NT 10.0; Win64; x64) AppleWebKit/537.36 (KHTML, like Gecko) Chrome/109.0.0.0 Safari/537.36" etag="hA5eClikVhswIpR5siKU" version="20.8.10" type="github">
  <diagram id="fPMPyYshQ41mcHCS2NZN" name="Page-1">
    <mxGraphModel dx="2625" dy="1468" grid="1" gridSize="10" guides="1" tooltips="1" connect="1" arrows="1" fold="1" page="1" pageScale="1" pageWidth="827" pageHeight="1169" math="0" shadow="0">
      <root>
        <mxCell id="0" />
        <mxCell id="1" parent="0" />
        <mxCell id="c6tONa4OQSoYcZHLHS9h-14" value="" style="group" parent="1" vertex="1" connectable="0">
          <mxGeometry width="400" height="225" as="geometry" />
        </mxCell>
        <mxCell id="L5rqq4pgs3yzmCQWjZke-1" value="" style="whiteSpace=wrap;html=1;aspect=fixed;" parent="c6tONa4OQSoYcZHLHS9h-14" vertex="1">
          <mxGeometry width="400" height="225" as="geometry" />
        </mxCell>
        <mxCell id="c6tONa4OQSoYcZHLHS9h-6" value="" style="ellipse;whiteSpace=wrap;html=1;" parent="c6tONa4OQSoYcZHLHS9h-14" vertex="1">
          <mxGeometry x="335" y="170" width="40" height="40" as="geometry" />
        </mxCell>
        <mxCell id="c6tONa4OQSoYcZHLHS9h-2" value="" style="ellipse;whiteSpace=wrap;html=1;" parent="c6tONa4OQSoYcZHLHS9h-14" vertex="1">
          <mxGeometry x="40" y="200" width="20" height="20" as="geometry" />
        </mxCell>
        <mxCell id="c6tONa4OQSoYcZHLHS9h-3" value="" style="ellipse;whiteSpace=wrap;html=1;" parent="c6tONa4OQSoYcZHLHS9h-14" vertex="1">
          <mxGeometry x="10" y="7.5" width="40" height="40" as="geometry" />
        </mxCell>
        <mxCell id="c6tONa4OQSoYcZHLHS9h-4" value="" style="ellipse;whiteSpace=wrap;html=1;" parent="c6tONa4OQSoYcZHLHS9h-14" vertex="1">
          <mxGeometry x="340" y="80" width="30" height="30" as="geometry" />
        </mxCell>
        <mxCell id="c6tONa4OQSoYcZHLHS9h-5" value="" style="ellipse;whiteSpace=wrap;html=1;" parent="c6tONa4OQSoYcZHLHS9h-14" vertex="1">
          <mxGeometry x="340" y="17.5" width="20" height="20" as="geometry" />
        </mxCell>
        <mxCell id="c6tONa4OQSoYcZHLHS9h-7" value="" style="ellipse;whiteSpace=wrap;html=1;" parent="c6tONa4OQSoYcZHLHS9h-14" vertex="1">
          <mxGeometry x="328" y="137.5" width="20" height="20" as="geometry" />
        </mxCell>
        <mxCell id="c6tONa4OQSoYcZHLHS9h-8" value="" style="ellipse;whiteSpace=wrap;html=1;" parent="c6tONa4OQSoYcZHLHS9h-14" vertex="1">
          <mxGeometry x="130" y="195" width="30" height="30" as="geometry" />
        </mxCell>
        <mxCell id="c6tONa4OQSoYcZHLHS9h-9" value="" style="ellipse;whiteSpace=wrap;html=1;" parent="c6tONa4OQSoYcZHLHS9h-14" vertex="1">
          <mxGeometry x="270" y="184.5" width="30" height="30" as="geometry" />
        </mxCell>
        <mxCell id="c6tONa4OQSoYcZHLHS9h-10" value="" style="ellipse;whiteSpace=wrap;html=1;" parent="c6tONa4OQSoYcZHLHS9h-14" vertex="1">
          <mxGeometry x="110" width="20" height="20" as="geometry" />
        </mxCell>
        <mxCell id="c6tONa4OQSoYcZHLHS9h-11" value="" style="ellipse;whiteSpace=wrap;html=1;" parent="c6tONa4OQSoYcZHLHS9h-14" vertex="1">
          <mxGeometry x="220" width="30" height="30" as="geometry" />
        </mxCell>
        <mxCell id="c6tONa4OQSoYcZHLHS9h-12" value="" style="ellipse;whiteSpace=wrap;html=1;" parent="c6tONa4OQSoYcZHLHS9h-14" vertex="1">
          <mxGeometry x="10" y="117.5" width="30" height="30" as="geometry" />
        </mxCell>
        <mxCell id="c6tONa4OQSoYcZHLHS9h-13" value="" style="ellipse;whiteSpace=wrap;html=1;" parent="c6tONa4OQSoYcZHLHS9h-14" vertex="1">
          <mxGeometry x="40" y="70" width="20" height="20" as="geometry" />
        </mxCell>
        <mxCell id="c6tONa4OQSoYcZHLHS9h-1" value="" style="whiteSpace=wrap;html=1;aspect=fixed;" parent="c6tONa4OQSoYcZHLHS9h-14" vertex="1">
          <mxGeometry x="72" y="40.5" width="256" height="144" as="geometry" />
        </mxCell>
        <mxCell id="L5rqq4pgs3yzmCQWjZke-4" value="Sign up" style="rounded=1;whiteSpace=wrap;html=1;" parent="c6tONa4OQSoYcZHLHS9h-14" vertex="1">
          <mxGeometry x="140" y="147.5" width="120" height="30" as="geometry" />
        </mxCell>
        <mxCell id="L5rqq4pgs3yzmCQWjZke-5" value="Log in" style="rounded=1;whiteSpace=wrap;html=1;" parent="c6tONa4OQSoYcZHLHS9h-14" vertex="1">
          <mxGeometry x="140" y="107.5" width="120" height="30" as="geometry" />
        </mxCell>
        <mxCell id="L5rqq4pgs3yzmCQWjZke-6" value="&lt;font style=&quot;font-size: 24px;&quot;&gt;MasterMind&lt;/font&gt;" style="text;html=1;align=center;verticalAlign=middle;resizable=0;points=[];autosize=1;strokeColor=none;fillColor=none;" parent="c6tONa4OQSoYcZHLHS9h-14" vertex="1">
          <mxGeometry x="130" y="47.5" width="140" height="20" as="geometry" />
        </mxCell>
        <mxCell id="c6tONa4OQSoYcZHLHS9h-16" value="" style="group" parent="1" vertex="1" connectable="0">
          <mxGeometry y="250" width="400" height="225" as="geometry" />
        </mxCell>
        <mxCell id="c6tONa4OQSoYcZHLHS9h-17" value="" style="whiteSpace=wrap;html=1;aspect=fixed;" parent="c6tONa4OQSoYcZHLHS9h-16" vertex="1">
          <mxGeometry width="400" height="225" as="geometry" />
        </mxCell>
        <mxCell id="c6tONa4OQSoYcZHLHS9h-18" value="" style="ellipse;whiteSpace=wrap;html=1;" parent="c6tONa4OQSoYcZHLHS9h-16" vertex="1">
          <mxGeometry x="335" y="170" width="40" height="40" as="geometry" />
        </mxCell>
        <mxCell id="c6tONa4OQSoYcZHLHS9h-19" value="" style="ellipse;whiteSpace=wrap;html=1;" parent="c6tONa4OQSoYcZHLHS9h-16" vertex="1">
          <mxGeometry x="40" y="200" width="20" height="20" as="geometry" />
        </mxCell>
        <mxCell id="c6tONa4OQSoYcZHLHS9h-20" value="" style="ellipse;whiteSpace=wrap;html=1;" parent="c6tONa4OQSoYcZHLHS9h-16" vertex="1">
          <mxGeometry x="10" y="7.5" width="40" height="40" as="geometry" />
        </mxCell>
        <mxCell id="c6tONa4OQSoYcZHLHS9h-21" value="" style="ellipse;whiteSpace=wrap;html=1;" parent="c6tONa4OQSoYcZHLHS9h-16" vertex="1">
          <mxGeometry x="340" y="80" width="30" height="30" as="geometry" />
        </mxCell>
        <mxCell id="c6tONa4OQSoYcZHLHS9h-22" value="" style="ellipse;whiteSpace=wrap;html=1;" parent="c6tONa4OQSoYcZHLHS9h-16" vertex="1">
          <mxGeometry x="340" y="17.5" width="20" height="20" as="geometry" />
        </mxCell>
        <mxCell id="c6tONa4OQSoYcZHLHS9h-23" value="" style="ellipse;whiteSpace=wrap;html=1;" parent="c6tONa4OQSoYcZHLHS9h-16" vertex="1">
          <mxGeometry x="328" y="137.5" width="20" height="20" as="geometry" />
        </mxCell>
        <mxCell id="c6tONa4OQSoYcZHLHS9h-24" value="" style="ellipse;whiteSpace=wrap;html=1;" parent="c6tONa4OQSoYcZHLHS9h-16" vertex="1">
          <mxGeometry x="130" y="195" width="30" height="30" as="geometry" />
        </mxCell>
        <mxCell id="c6tONa4OQSoYcZHLHS9h-25" value="" style="ellipse;whiteSpace=wrap;html=1;" parent="c6tONa4OQSoYcZHLHS9h-16" vertex="1">
          <mxGeometry x="270" y="184.5" width="30" height="30" as="geometry" />
        </mxCell>
        <mxCell id="c6tONa4OQSoYcZHLHS9h-26" value="" style="ellipse;whiteSpace=wrap;html=1;" parent="c6tONa4OQSoYcZHLHS9h-16" vertex="1">
          <mxGeometry x="110" width="20" height="20" as="geometry" />
        </mxCell>
        <mxCell id="c6tONa4OQSoYcZHLHS9h-27" value="" style="ellipse;whiteSpace=wrap;html=1;" parent="c6tONa4OQSoYcZHLHS9h-16" vertex="1">
          <mxGeometry x="220" width="30" height="30" as="geometry" />
        </mxCell>
        <mxCell id="c6tONa4OQSoYcZHLHS9h-28" value="" style="ellipse;whiteSpace=wrap;html=1;" parent="c6tONa4OQSoYcZHLHS9h-16" vertex="1">
          <mxGeometry x="10" y="117.5" width="30" height="30" as="geometry" />
        </mxCell>
        <mxCell id="c6tONa4OQSoYcZHLHS9h-29" value="" style="ellipse;whiteSpace=wrap;html=1;" parent="c6tONa4OQSoYcZHLHS9h-16" vertex="1">
          <mxGeometry x="40" y="70" width="20" height="20" as="geometry" />
        </mxCell>
        <mxCell id="c6tONa4OQSoYcZHLHS9h-30" value="" style="whiteSpace=wrap;html=1;aspect=fixed;" parent="c6tONa4OQSoYcZHLHS9h-16" vertex="1">
          <mxGeometry x="72" y="40.5" width="256" height="144" as="geometry" />
        </mxCell>
        <mxCell id="c6tONa4OQSoYcZHLHS9h-31" value="Start" style="rounded=1;whiteSpace=wrap;html=1;" parent="c6tONa4OQSoYcZHLHS9h-16" vertex="1">
          <mxGeometry x="140" y="147.5" width="120" height="30" as="geometry" />
        </mxCell>
        <mxCell id="c6tONa4OQSoYcZHLHS9h-32" value="Rules" style="rounded=1;whiteSpace=wrap;html=1;" parent="c6tONa4OQSoYcZHLHS9h-16" vertex="1">
          <mxGeometry x="140" y="70" width="120" height="30" as="geometry" />
        </mxCell>
        <mxCell id="c6tONa4OQSoYcZHLHS9h-33" value="&lt;font style=&quot;font-size: 24px;&quot;&gt;MasterMind&lt;/font&gt;" style="text;html=1;align=center;verticalAlign=middle;resizable=0;points=[];autosize=1;strokeColor=none;fillColor=none;" parent="c6tONa4OQSoYcZHLHS9h-16" vertex="1">
          <mxGeometry x="130" y="47.5" width="140" height="20" as="geometry" />
        </mxCell>
        <mxCell id="ZgCFhsU79qnRdnPAR6Uo-1" value="View leaderboard" style="rounded=1;whiteSpace=wrap;html=1;" vertex="1" parent="c6tONa4OQSoYcZHLHS9h-16">
          <mxGeometry x="140" y="110" width="120" height="30" as="geometry" />
        </mxCell>
        <mxCell id="c6tONa4OQSoYcZHLHS9h-34" value="" style="group" parent="1" vertex="1" connectable="0">
          <mxGeometry x="427" width="400" height="225" as="geometry" />
        </mxCell>
        <mxCell id="c6tONa4OQSoYcZHLHS9h-35" value="" style="whiteSpace=wrap;html=1;aspect=fixed;" parent="c6tONa4OQSoYcZHLHS9h-34" vertex="1">
          <mxGeometry width="400" height="225" as="geometry" />
        </mxCell>
        <mxCell id="c6tONa4OQSoYcZHLHS9h-36" value="" style="ellipse;whiteSpace=wrap;html=1;" parent="c6tONa4OQSoYcZHLHS9h-34" vertex="1">
          <mxGeometry x="335" y="170" width="40" height="40" as="geometry" />
        </mxCell>
        <mxCell id="c6tONa4OQSoYcZHLHS9h-37" value="" style="ellipse;whiteSpace=wrap;html=1;" parent="c6tONa4OQSoYcZHLHS9h-34" vertex="1">
          <mxGeometry x="40" y="200" width="20" height="20" as="geometry" />
        </mxCell>
        <mxCell id="c6tONa4OQSoYcZHLHS9h-38" value="" style="ellipse;whiteSpace=wrap;html=1;" parent="c6tONa4OQSoYcZHLHS9h-34" vertex="1">
          <mxGeometry x="10" y="7.5" width="40" height="40" as="geometry" />
        </mxCell>
        <mxCell id="c6tONa4OQSoYcZHLHS9h-39" value="" style="ellipse;whiteSpace=wrap;html=1;" parent="c6tONa4OQSoYcZHLHS9h-34" vertex="1">
          <mxGeometry x="340" y="80" width="30" height="30" as="geometry" />
        </mxCell>
        <mxCell id="c6tONa4OQSoYcZHLHS9h-40" value="" style="ellipse;whiteSpace=wrap;html=1;" parent="c6tONa4OQSoYcZHLHS9h-34" vertex="1">
          <mxGeometry x="340" y="17.5" width="20" height="20" as="geometry" />
        </mxCell>
        <mxCell id="c6tONa4OQSoYcZHLHS9h-41" value="" style="ellipse;whiteSpace=wrap;html=1;" parent="c6tONa4OQSoYcZHLHS9h-34" vertex="1">
          <mxGeometry x="328" y="137.5" width="20" height="20" as="geometry" />
        </mxCell>
        <mxCell id="c6tONa4OQSoYcZHLHS9h-42" value="" style="ellipse;whiteSpace=wrap;html=1;" parent="c6tONa4OQSoYcZHLHS9h-34" vertex="1">
          <mxGeometry x="130" y="195" width="30" height="30" as="geometry" />
        </mxCell>
        <mxCell id="c6tONa4OQSoYcZHLHS9h-43" value="" style="ellipse;whiteSpace=wrap;html=1;" parent="c6tONa4OQSoYcZHLHS9h-34" vertex="1">
          <mxGeometry x="270" y="184.5" width="30" height="30" as="geometry" />
        </mxCell>
        <mxCell id="c6tONa4OQSoYcZHLHS9h-44" value="" style="ellipse;whiteSpace=wrap;html=1;" parent="c6tONa4OQSoYcZHLHS9h-34" vertex="1">
          <mxGeometry x="110" width="20" height="20" as="geometry" />
        </mxCell>
        <mxCell id="c6tONa4OQSoYcZHLHS9h-45" value="" style="ellipse;whiteSpace=wrap;html=1;" parent="c6tONa4OQSoYcZHLHS9h-34" vertex="1">
          <mxGeometry x="220" width="30" height="30" as="geometry" />
        </mxCell>
        <mxCell id="c6tONa4OQSoYcZHLHS9h-46" value="" style="ellipse;whiteSpace=wrap;html=1;" parent="c6tONa4OQSoYcZHLHS9h-34" vertex="1">
          <mxGeometry x="10" y="117.5" width="30" height="30" as="geometry" />
        </mxCell>
        <mxCell id="c6tONa4OQSoYcZHLHS9h-47" value="" style="ellipse;whiteSpace=wrap;html=1;" parent="c6tONa4OQSoYcZHLHS9h-34" vertex="1">
          <mxGeometry x="40" y="70" width="20" height="20" as="geometry" />
        </mxCell>
        <mxCell id="c6tONa4OQSoYcZHLHS9h-48" value="" style="whiteSpace=wrap;html=1;aspect=fixed;" parent="c6tONa4OQSoYcZHLHS9h-34" vertex="1">
          <mxGeometry x="72" y="40.5" width="256" height="144" as="geometry" />
        </mxCell>
        <mxCell id="c6tONa4OQSoYcZHLHS9h-53" value="Back" style="rounded=1;whiteSpace=wrap;html=1;" parent="c6tONa4OQSoYcZHLHS9h-34" vertex="1">
          <mxGeometry x="85" y="147.5" width="120" height="30" as="geometry" />
        </mxCell>
        <mxCell id="c6tONa4OQSoYcZHLHS9h-52" value="&lt;h1&gt;Rules&lt;/h1&gt;&lt;p&gt;Lorem ipsum dolor sit amet, consectetur adipisicing elit, sed do eiusmod tempor incididunt ut labore et dolore magna aliqua.&lt;/p&gt;" style="text;html=1;strokeColor=none;fillColor=none;spacing=5;spacingTop=-20;whiteSpace=wrap;overflow=hidden;rounded=0;" parent="c6tONa4OQSoYcZHLHS9h-34" vertex="1">
          <mxGeometry x="77.5" y="40.5" width="245" height="105" as="geometry" />
        </mxCell>
        <mxCell id="c6tONa4OQSoYcZHLHS9h-54" value="" style="group" parent="1" vertex="1" connectable="0">
          <mxGeometry y="520" width="400" height="225" as="geometry" />
        </mxCell>
        <mxCell id="c6tONa4OQSoYcZHLHS9h-55" value="" style="whiteSpace=wrap;html=1;aspect=fixed;" parent="c6tONa4OQSoYcZHLHS9h-54" vertex="1">
          <mxGeometry width="400" height="225" as="geometry" />
        </mxCell>
        <mxCell id="c6tONa4OQSoYcZHLHS9h-56" value="" style="ellipse;whiteSpace=wrap;html=1;" parent="c6tONa4OQSoYcZHLHS9h-54" vertex="1">
          <mxGeometry x="335" y="170" width="40" height="40" as="geometry" />
        </mxCell>
        <mxCell id="c6tONa4OQSoYcZHLHS9h-57" value="" style="ellipse;whiteSpace=wrap;html=1;" parent="c6tONa4OQSoYcZHLHS9h-54" vertex="1">
          <mxGeometry x="40" y="200" width="20" height="20" as="geometry" />
        </mxCell>
        <mxCell id="c6tONa4OQSoYcZHLHS9h-58" value="" style="ellipse;whiteSpace=wrap;html=1;" parent="c6tONa4OQSoYcZHLHS9h-54" vertex="1">
          <mxGeometry x="10" y="7.5" width="40" height="40" as="geometry" />
        </mxCell>
        <mxCell id="c6tONa4OQSoYcZHLHS9h-59" value="" style="ellipse;whiteSpace=wrap;html=1;" parent="c6tONa4OQSoYcZHLHS9h-54" vertex="1">
          <mxGeometry x="340" y="80" width="30" height="30" as="geometry" />
        </mxCell>
        <mxCell id="c6tONa4OQSoYcZHLHS9h-60" value="" style="ellipse;whiteSpace=wrap;html=1;" parent="c6tONa4OQSoYcZHLHS9h-54" vertex="1">
          <mxGeometry x="340" y="17.5" width="20" height="20" as="geometry" />
        </mxCell>
        <mxCell id="c6tONa4OQSoYcZHLHS9h-61" value="" style="ellipse;whiteSpace=wrap;html=1;" parent="c6tONa4OQSoYcZHLHS9h-54" vertex="1">
          <mxGeometry x="328" y="137.5" width="20" height="20" as="geometry" />
        </mxCell>
        <mxCell id="c6tONa4OQSoYcZHLHS9h-62" value="" style="ellipse;whiteSpace=wrap;html=1;" parent="c6tONa4OQSoYcZHLHS9h-54" vertex="1">
          <mxGeometry x="130" y="195" width="30" height="30" as="geometry" />
        </mxCell>
        <mxCell id="c6tONa4OQSoYcZHLHS9h-63" value="" style="ellipse;whiteSpace=wrap;html=1;" parent="c6tONa4OQSoYcZHLHS9h-54" vertex="1">
          <mxGeometry x="270" y="184.5" width="30" height="30" as="geometry" />
        </mxCell>
        <mxCell id="c6tONa4OQSoYcZHLHS9h-64" value="" style="ellipse;whiteSpace=wrap;html=1;" parent="c6tONa4OQSoYcZHLHS9h-54" vertex="1">
          <mxGeometry x="110" width="20" height="20" as="geometry" />
        </mxCell>
        <mxCell id="c6tONa4OQSoYcZHLHS9h-65" value="" style="ellipse;whiteSpace=wrap;html=1;" parent="c6tONa4OQSoYcZHLHS9h-54" vertex="1">
          <mxGeometry x="220" width="30" height="30" as="geometry" />
        </mxCell>
        <mxCell id="c6tONa4OQSoYcZHLHS9h-66" value="" style="ellipse;whiteSpace=wrap;html=1;" parent="c6tONa4OQSoYcZHLHS9h-54" vertex="1">
          <mxGeometry x="10" y="117.5" width="30" height="30" as="geometry" />
        </mxCell>
        <mxCell id="c6tONa4OQSoYcZHLHS9h-67" value="" style="ellipse;whiteSpace=wrap;html=1;" parent="c6tONa4OQSoYcZHLHS9h-54" vertex="1">
          <mxGeometry x="40" y="70" width="20" height="20" as="geometry" />
        </mxCell>
        <mxCell id="c6tONa4OQSoYcZHLHS9h-68" value="" style="whiteSpace=wrap;html=1;aspect=fixed;" parent="c6tONa4OQSoYcZHLHS9h-54" vertex="1">
          <mxGeometry x="72" y="40.5" width="256" height="144" as="geometry" />
        </mxCell>
        <mxCell id="c6tONa4OQSoYcZHLHS9h-72" value="Play vs Computer" style="rounded=1;whiteSpace=wrap;html=1;" parent="c6tONa4OQSoYcZHLHS9h-54" vertex="1">
          <mxGeometry x="140" y="45.25" width="110" height="20" as="geometry" />
        </mxCell>
        <mxCell id="c6tONa4OQSoYcZHLHS9h-73" value="Local Multiplayer" style="rounded=1;whiteSpace=wrap;html=1;" parent="c6tONa4OQSoYcZHLHS9h-54" vertex="1">
          <mxGeometry x="140" y="75.25" width="110" height="20" as="geometry" />
        </mxCell>
        <mxCell id="c6tONa4OQSoYcZHLHS9h-74" value="Host Online Game" style="rounded=1;whiteSpace=wrap;html=1;" parent="c6tONa4OQSoYcZHLHS9h-54" vertex="1">
          <mxGeometry x="140" y="105.25" width="110" height="20" as="geometry" />
        </mxCell>
        <mxCell id="c6tONa4OQSoYcZHLHS9h-75" value="Join Online Game" style="rounded=1;whiteSpace=wrap;html=1;" parent="c6tONa4OQSoYcZHLHS9h-54" vertex="1">
          <mxGeometry x="140" y="132.75" width="110" height="20" as="geometry" />
        </mxCell>
        <mxCell id="c6tONa4OQSoYcZHLHS9h-95" value="Back" style="rounded=1;whiteSpace=wrap;html=1;" parent="c6tONa4OQSoYcZHLHS9h-54" vertex="1">
          <mxGeometry x="140" y="159.75" width="110" height="20" as="geometry" />
        </mxCell>
        <mxCell id="c6tONa4OQSoYcZHLHS9h-76" value="" style="group" parent="1" vertex="1" connectable="0">
          <mxGeometry x="427" y="520" width="400" height="225" as="geometry" />
        </mxCell>
        <mxCell id="c6tONa4OQSoYcZHLHS9h-77" value="" style="whiteSpace=wrap;html=1;aspect=fixed;" parent="c6tONa4OQSoYcZHLHS9h-76" vertex="1">
          <mxGeometry width="400" height="225" as="geometry" />
        </mxCell>
        <mxCell id="c6tONa4OQSoYcZHLHS9h-78" value="" style="ellipse;whiteSpace=wrap;html=1;" parent="c6tONa4OQSoYcZHLHS9h-76" vertex="1">
          <mxGeometry x="335" y="170" width="40" height="40" as="geometry" />
        </mxCell>
        <mxCell id="c6tONa4OQSoYcZHLHS9h-79" value="" style="ellipse;whiteSpace=wrap;html=1;" parent="c6tONa4OQSoYcZHLHS9h-76" vertex="1">
          <mxGeometry x="40" y="200" width="20" height="20" as="geometry" />
        </mxCell>
        <mxCell id="c6tONa4OQSoYcZHLHS9h-80" value="" style="ellipse;whiteSpace=wrap;html=1;" parent="c6tONa4OQSoYcZHLHS9h-76" vertex="1">
          <mxGeometry x="10" y="7.5" width="40" height="40" as="geometry" />
        </mxCell>
        <mxCell id="c6tONa4OQSoYcZHLHS9h-81" value="" style="ellipse;whiteSpace=wrap;html=1;" parent="c6tONa4OQSoYcZHLHS9h-76" vertex="1">
          <mxGeometry x="340" y="80" width="30" height="30" as="geometry" />
        </mxCell>
        <mxCell id="c6tONa4OQSoYcZHLHS9h-82" value="" style="ellipse;whiteSpace=wrap;html=1;" parent="c6tONa4OQSoYcZHLHS9h-76" vertex="1">
          <mxGeometry x="340" y="17.5" width="20" height="20" as="geometry" />
        </mxCell>
        <mxCell id="c6tONa4OQSoYcZHLHS9h-83" value="" style="ellipse;whiteSpace=wrap;html=1;" parent="c6tONa4OQSoYcZHLHS9h-76" vertex="1">
          <mxGeometry x="328" y="137.5" width="20" height="20" as="geometry" />
        </mxCell>
        <mxCell id="c6tONa4OQSoYcZHLHS9h-84" value="" style="ellipse;whiteSpace=wrap;html=1;" parent="c6tONa4OQSoYcZHLHS9h-76" vertex="1">
          <mxGeometry x="130" y="195" width="30" height="30" as="geometry" />
        </mxCell>
        <mxCell id="c6tONa4OQSoYcZHLHS9h-85" value="" style="ellipse;whiteSpace=wrap;html=1;" parent="c6tONa4OQSoYcZHLHS9h-76" vertex="1">
          <mxGeometry x="270" y="184.5" width="30" height="30" as="geometry" />
        </mxCell>
        <mxCell id="c6tONa4OQSoYcZHLHS9h-86" value="" style="ellipse;whiteSpace=wrap;html=1;" parent="c6tONa4OQSoYcZHLHS9h-76" vertex="1">
          <mxGeometry x="110" width="20" height="20" as="geometry" />
        </mxCell>
        <mxCell id="c6tONa4OQSoYcZHLHS9h-87" value="" style="ellipse;whiteSpace=wrap;html=1;" parent="c6tONa4OQSoYcZHLHS9h-76" vertex="1">
          <mxGeometry x="220" width="30" height="30" as="geometry" />
        </mxCell>
        <mxCell id="c6tONa4OQSoYcZHLHS9h-88" value="" style="ellipse;whiteSpace=wrap;html=1;" parent="c6tONa4OQSoYcZHLHS9h-76" vertex="1">
          <mxGeometry x="10" y="117.5" width="30" height="30" as="geometry" />
        </mxCell>
        <mxCell id="c6tONa4OQSoYcZHLHS9h-89" value="" style="ellipse;whiteSpace=wrap;html=1;" parent="c6tONa4OQSoYcZHLHS9h-76" vertex="1">
          <mxGeometry x="40" y="70" width="20" height="20" as="geometry" />
        </mxCell>
        <mxCell id="c6tONa4OQSoYcZHLHS9h-90" value="" style="whiteSpace=wrap;html=1;aspect=fixed;" parent="c6tONa4OQSoYcZHLHS9h-76" vertex="1">
          <mxGeometry x="72" y="40.5" width="256" height="144" as="geometry" />
        </mxCell>
        <mxCell id="c6tONa4OQSoYcZHLHS9h-96" value="Start" style="rounded=1;whiteSpace=wrap;html=1;" parent="c6tONa4OQSoYcZHLHS9h-76" vertex="1">
          <mxGeometry x="140" y="55" width="120" height="30" as="geometry" />
        </mxCell>
        <mxCell id="c6tONa4OQSoYcZHLHS9h-97" value="Advanced Setup" style="rounded=1;whiteSpace=wrap;html=1;" parent="c6tONa4OQSoYcZHLHS9h-76" vertex="1">
          <mxGeometry x="140" y="97.5" width="120" height="30" as="geometry" />
        </mxCell>
        <mxCell id="c6tONa4OQSoYcZHLHS9h-98" value="Back" style="rounded=1;whiteSpace=wrap;html=1;" parent="c6tONa4OQSoYcZHLHS9h-76" vertex="1">
          <mxGeometry x="140" y="140" width="120" height="30" as="geometry" />
        </mxCell>
        <mxCell id="c6tONa4OQSoYcZHLHS9h-99" value="" style="group" parent="1" vertex="1" connectable="0">
          <mxGeometry x="427" y="780" width="400" height="225" as="geometry" />
        </mxCell>
        <mxCell id="c6tONa4OQSoYcZHLHS9h-100" value="" style="whiteSpace=wrap;html=1;aspect=fixed;" parent="c6tONa4OQSoYcZHLHS9h-99" vertex="1">
          <mxGeometry width="400" height="225" as="geometry" />
        </mxCell>
        <mxCell id="c6tONa4OQSoYcZHLHS9h-101" value="" style="ellipse;whiteSpace=wrap;html=1;" parent="c6tONa4OQSoYcZHLHS9h-99" vertex="1">
          <mxGeometry x="335" y="170" width="40" height="40" as="geometry" />
        </mxCell>
        <mxCell id="c6tONa4OQSoYcZHLHS9h-102" value="" style="ellipse;whiteSpace=wrap;html=1;" parent="c6tONa4OQSoYcZHLHS9h-99" vertex="1">
          <mxGeometry x="40" y="200" width="20" height="20" as="geometry" />
        </mxCell>
        <mxCell id="c6tONa4OQSoYcZHLHS9h-103" value="" style="ellipse;whiteSpace=wrap;html=1;" parent="c6tONa4OQSoYcZHLHS9h-99" vertex="1">
          <mxGeometry x="10" y="7.5" width="40" height="40" as="geometry" />
        </mxCell>
        <mxCell id="c6tONa4OQSoYcZHLHS9h-104" value="" style="ellipse;whiteSpace=wrap;html=1;" parent="c6tONa4OQSoYcZHLHS9h-99" vertex="1">
          <mxGeometry x="340" y="80" width="30" height="30" as="geometry" />
        </mxCell>
        <mxCell id="c6tONa4OQSoYcZHLHS9h-105" value="" style="ellipse;whiteSpace=wrap;html=1;" parent="c6tONa4OQSoYcZHLHS9h-99" vertex="1">
          <mxGeometry x="340" y="17.5" width="20" height="20" as="geometry" />
        </mxCell>
        <mxCell id="c6tONa4OQSoYcZHLHS9h-106" value="" style="ellipse;whiteSpace=wrap;html=1;" parent="c6tONa4OQSoYcZHLHS9h-99" vertex="1">
          <mxGeometry x="328" y="137.5" width="20" height="20" as="geometry" />
        </mxCell>
        <mxCell id="c6tONa4OQSoYcZHLHS9h-107" value="" style="ellipse;whiteSpace=wrap;html=1;" parent="c6tONa4OQSoYcZHLHS9h-99" vertex="1">
          <mxGeometry x="130" y="195" width="30" height="30" as="geometry" />
        </mxCell>
        <mxCell id="c6tONa4OQSoYcZHLHS9h-108" value="" style="ellipse;whiteSpace=wrap;html=1;" parent="c6tONa4OQSoYcZHLHS9h-99" vertex="1">
          <mxGeometry x="270" y="184.5" width="30" height="30" as="geometry" />
        </mxCell>
        <mxCell id="c6tONa4OQSoYcZHLHS9h-109" value="" style="ellipse;whiteSpace=wrap;html=1;" parent="c6tONa4OQSoYcZHLHS9h-99" vertex="1">
          <mxGeometry x="110" width="20" height="20" as="geometry" />
        </mxCell>
        <mxCell id="c6tONa4OQSoYcZHLHS9h-110" value="" style="ellipse;whiteSpace=wrap;html=1;" parent="c6tONa4OQSoYcZHLHS9h-99" vertex="1">
          <mxGeometry x="220" width="30" height="30" as="geometry" />
        </mxCell>
        <mxCell id="c6tONa4OQSoYcZHLHS9h-111" value="" style="ellipse;whiteSpace=wrap;html=1;" parent="c6tONa4OQSoYcZHLHS9h-99" vertex="1">
          <mxGeometry x="10" y="117.5" width="30" height="30" as="geometry" />
        </mxCell>
        <mxCell id="c6tONa4OQSoYcZHLHS9h-112" value="" style="ellipse;whiteSpace=wrap;html=1;" parent="c6tONa4OQSoYcZHLHS9h-99" vertex="1">
          <mxGeometry x="40" y="70" width="20" height="20" as="geometry" />
        </mxCell>
        <mxCell id="c6tONa4OQSoYcZHLHS9h-113" value="" style="whiteSpace=wrap;html=1;aspect=fixed;" parent="c6tONa4OQSoYcZHLHS9h-99" vertex="1">
          <mxGeometry x="72" y="40.5" width="256" height="144" as="geometry" />
        </mxCell>
        <mxCell id="c6tONa4OQSoYcZHLHS9h-116" value="Back" style="rounded=1;whiteSpace=wrap;html=1;" parent="c6tONa4OQSoYcZHLHS9h-99" vertex="1">
          <mxGeometry x="145" y="157.5" width="110" height="20" as="geometry" />
        </mxCell>
        <mxCell id="c6tONa4OQSoYcZHLHS9h-118" value="" style="verticalLabelPosition=bottom;shadow=0;dashed=0;align=center;html=1;verticalAlign=top;strokeWidth=1;shape=mxgraph.mockup.forms.horSlider;strokeColor=#999999;sliderStyle=basic;sliderPos=20;handleStyle=circle;fillColor2=#ddeeff;" parent="c6tONa4OQSoYcZHLHS9h-99" vertex="1">
          <mxGeometry x="83" y="127.5" width="150" height="30" as="geometry" />
        </mxCell>
        <mxCell id="c6tONa4OQSoYcZHLHS9h-137" value="" style="verticalLabelPosition=bottom;shadow=0;dashed=0;align=center;html=1;verticalAlign=top;strokeWidth=1;shape=mxgraph.mockup.forms.horSlider;strokeColor=#999999;sliderStyle=basic;sliderPos=66.19;handleStyle=circle;fillColor2=#ddeeff;" parent="c6tONa4OQSoYcZHLHS9h-99" vertex="1">
          <mxGeometry x="83" y="97.5" width="150" height="30" as="geometry" />
        </mxCell>
        <mxCell id="c6tONa4OQSoYcZHLHS9h-142" value="" style="group" parent="c6tONa4OQSoYcZHLHS9h-99" vertex="1" connectable="0">
          <mxGeometry x="83" y="80" width="130" height="10" as="geometry" />
        </mxCell>
        <mxCell id="c6tONa4OQSoYcZHLHS9h-138" value="Setting 1" style="shape=ellipse;fillColor=#eeeeee;strokeColor=#999999;gradientColor=#cccccc;html=1;align=left;spacingLeft=4;fontSize=10;fontColor=#666666;labelPosition=right;shadow=0;" parent="c6tONa4OQSoYcZHLHS9h-142" vertex="1">
          <mxGeometry width="10" height="10" as="geometry" />
        </mxCell>
        <mxCell id="c6tONa4OQSoYcZHLHS9h-140" value="Setting 2" style="shape=ellipse;fillColor=#eeeeee;strokeColor=#999999;gradientColor=#cccccc;html=1;align=left;spacingLeft=4;fontSize=10;fontColor=#666666;labelPosition=right;shadow=0;" parent="c6tONa4OQSoYcZHLHS9h-142" vertex="1">
          <mxGeometry x="60" width="10" height="10" as="geometry" />
        </mxCell>
        <mxCell id="c6tONa4OQSoYcZHLHS9h-141" value="Setting 3" style="shape=ellipse;fillColor=#eeeeee;strokeColor=#999999;gradientColor=#cccccc;html=1;align=left;spacingLeft=4;fontSize=10;fontColor=#666666;labelPosition=right;shadow=0;" parent="c6tONa4OQSoYcZHLHS9h-142" vertex="1">
          <mxGeometry x="120" width="10" height="10" as="geometry" />
        </mxCell>
        <mxCell id="c6tONa4OQSoYcZHLHS9h-143" value="" style="endArrow=classic;html=1;rounded=0;fontSize=10;" parent="1" source="L5rqq4pgs3yzmCQWjZke-1" target="c6tONa4OQSoYcZHLHS9h-17" edge="1">
          <mxGeometry width="50" height="50" relative="1" as="geometry">
            <mxPoint x="420" y="150" as="sourcePoint" />
            <mxPoint x="470" y="100" as="targetPoint" />
          </mxGeometry>
        </mxCell>
        <mxCell id="c6tONa4OQSoYcZHLHS9h-146" value="" style="endArrow=classic;startArrow=classic;html=1;rounded=0;fontSize=10;" parent="1" source="c6tONa4OQSoYcZHLHS9h-35" target="c6tONa4OQSoYcZHLHS9h-17" edge="1">
          <mxGeometry width="50" height="50" relative="1" as="geometry">
            <mxPoint x="420" y="230" as="sourcePoint" />
            <mxPoint x="470" y="180" as="targetPoint" />
          </mxGeometry>
        </mxCell>
        <mxCell id="c6tONa4OQSoYcZHLHS9h-147" value="" style="endArrow=classic;startArrow=classic;html=1;rounded=0;fontSize=10;" parent="1" source="c6tONa4OQSoYcZHLHS9h-55" target="c6tONa4OQSoYcZHLHS9h-17" edge="1">
          <mxGeometry width="50" height="50" relative="1" as="geometry">
            <mxPoint x="420" y="230" as="sourcePoint" />
            <mxPoint x="470" y="180" as="targetPoint" />
          </mxGeometry>
        </mxCell>
        <mxCell id="c6tONa4OQSoYcZHLHS9h-148" value="" style="endArrow=classic;startArrow=classic;html=1;rounded=0;fontSize=10;" parent="1" source="c6tONa4OQSoYcZHLHS9h-77" target="c6tONa4OQSoYcZHLHS9h-55" edge="1">
          <mxGeometry width="50" height="50" relative="1" as="geometry">
            <mxPoint x="370" y="660" as="sourcePoint" />
            <mxPoint x="420" y="610" as="targetPoint" />
          </mxGeometry>
        </mxCell>
        <mxCell id="c6tONa4OQSoYcZHLHS9h-149" value="" style="endArrow=classic;startArrow=classic;html=1;rounded=0;fontSize=10;" parent="1" source="c6tONa4OQSoYcZHLHS9h-77" target="c6tONa4OQSoYcZHLHS9h-100" edge="1">
          <mxGeometry width="50" height="50" relative="1" as="geometry">
            <mxPoint x="390" y="640" as="sourcePoint" />
            <mxPoint x="440" y="590" as="targetPoint" />
          </mxGeometry>
        </mxCell>
        <mxCell id="c6tONa4OQSoYcZHLHS9h-150" value="" style="group;aspect=fixed;" parent="1" vertex="1" connectable="0">
          <mxGeometry x="12" y="1050" width="804" height="450" as="geometry" />
        </mxCell>
        <mxCell id="c6tONa4OQSoYcZHLHS9h-151" value="" style="whiteSpace=wrap;html=1;aspect=fixed;" parent="c6tONa4OQSoYcZHLHS9h-150" vertex="1">
          <mxGeometry width="800" height="450" as="geometry" />
        </mxCell>
        <mxCell id="ZhGtr3n9az-LHntfUs51-93" value="" style="group" parent="c6tONa4OQSoYcZHLHS9h-150" vertex="1" connectable="0">
          <mxGeometry x="26" y="230" width="379.92" height="203" as="geometry" />
        </mxCell>
        <mxCell id="ZhGtr3n9az-LHntfUs51-1" value="" style="group" parent="ZhGtr3n9az-LHntfUs51-93" vertex="1" connectable="0">
          <mxGeometry width="379.92" height="59.705882352941174" as="geometry" />
        </mxCell>
        <mxCell id="ZhGtr3n9az-LHntfUs51-2" value="" style="group" parent="ZhGtr3n9az-LHntfUs51-1" vertex="1" connectable="0">
          <mxGeometry x="211.20000000000002" width="52.800000000000004" height="59.705882352941174" as="geometry" />
        </mxCell>
        <mxCell id="ZhGtr3n9az-LHntfUs51-3" value="" style="rounded=0;whiteSpace=wrap;html=1;" parent="ZhGtr3n9az-LHntfUs51-2" vertex="1">
          <mxGeometry width="52.800000000000004" height="59.705882352941174" as="geometry" />
        </mxCell>
        <mxCell id="ZhGtr3n9az-LHntfUs51-4" value="" style="ellipse;whiteSpace=wrap;html=1;aspect=fixed;" parent="ZhGtr3n9az-LHntfUs51-2" vertex="1">
          <mxGeometry x="5.28" y="5.970588235294118" width="18.48" height="18.48" as="geometry" />
        </mxCell>
        <mxCell id="ZhGtr3n9az-LHntfUs51-5" value="" style="ellipse;whiteSpace=wrap;html=1;aspect=fixed;" parent="ZhGtr3n9az-LHntfUs51-2" vertex="1">
          <mxGeometry x="29.040000000000003" y="5.970588235294118" width="18.48" height="18.48" as="geometry" />
        </mxCell>
        <mxCell id="ZhGtr3n9az-LHntfUs51-6" value="" style="ellipse;whiteSpace=wrap;html=1;aspect=fixed;" parent="ZhGtr3n9az-LHntfUs51-2" vertex="1">
          <mxGeometry x="5.28" y="32.838235294117645" width="18.48" height="18.48" as="geometry" />
        </mxCell>
        <mxCell id="ZhGtr3n9az-LHntfUs51-7" value="" style="ellipse;whiteSpace=wrap;html=1;aspect=fixed;" parent="ZhGtr3n9az-LHntfUs51-2" vertex="1">
          <mxGeometry x="29.040000000000003" y="32.838235294117645" width="18.48" height="18.48" as="geometry" />
        </mxCell>
        <mxCell id="ZhGtr3n9az-LHntfUs51-8" value="" style="group" parent="ZhGtr3n9az-LHntfUs51-1" vertex="1" connectable="0">
          <mxGeometry width="379.92" height="59.705882352941174" as="geometry" />
        </mxCell>
        <mxCell id="ZhGtr3n9az-LHntfUs51-9" value="" style="rounded=0;whiteSpace=wrap;html=1;" parent="ZhGtr3n9az-LHntfUs51-8" vertex="1">
          <mxGeometry width="211.20000000000002" height="59.705882352941174" as="geometry" />
        </mxCell>
        <mxCell id="ZhGtr3n9az-LHntfUs51-10" value="" style="ellipse;whiteSpace=wrap;html=1;aspect=fixed;" parent="ZhGtr3n9az-LHntfUs51-8" vertex="1">
          <mxGeometry x="5.28" y="5.970588235294118" width="42.24" height="42.24" as="geometry" />
        </mxCell>
        <mxCell id="ZhGtr3n9az-LHntfUs51-11" value="" style="ellipse;whiteSpace=wrap;html=1;aspect=fixed;" parent="ZhGtr3n9az-LHntfUs51-8" vertex="1">
          <mxGeometry x="58.080000000000005" y="5.970588235294118" width="42.24" height="42.24" as="geometry" />
        </mxCell>
        <mxCell id="ZhGtr3n9az-LHntfUs51-12" value="" style="ellipse;whiteSpace=wrap;html=1;aspect=fixed;" parent="ZhGtr3n9az-LHntfUs51-8" vertex="1">
          <mxGeometry x="110.88000000000001" y="5.970588235294118" width="42.24" height="42.24" as="geometry" />
        </mxCell>
        <mxCell id="ZhGtr3n9az-LHntfUs51-13" value="" style="ellipse;whiteSpace=wrap;html=1;aspect=fixed;" parent="ZhGtr3n9az-LHntfUs51-8" vertex="1">
          <mxGeometry x="163.68" y="5.970588235294118" width="42.24" height="42.24" as="geometry" />
        </mxCell>
        <mxCell id="ZhGtr3n9az-LHntfUs51-14" value="" style="group" parent="ZhGtr3n9az-LHntfUs51-8" vertex="1" connectable="0">
          <mxGeometry y="-71.6470588235294" width="379.92" height="59.705882352941174" as="geometry" />
        </mxCell>
        <mxCell id="ZhGtr3n9az-LHntfUs51-15" value="" style="group" parent="ZhGtr3n9az-LHntfUs51-14" vertex="1" connectable="0">
          <mxGeometry x="211.20000000000002" width="52.800000000000004" height="59.705882352941174" as="geometry" />
        </mxCell>
        <mxCell id="ZhGtr3n9az-LHntfUs51-16" value="" style="rounded=0;whiteSpace=wrap;html=1;" parent="ZhGtr3n9az-LHntfUs51-15" vertex="1">
          <mxGeometry width="52.800000000000004" height="59.705882352941174" as="geometry" />
        </mxCell>
        <mxCell id="ZhGtr3n9az-LHntfUs51-17" value="" style="ellipse;whiteSpace=wrap;html=1;aspect=fixed;" parent="ZhGtr3n9az-LHntfUs51-15" vertex="1">
          <mxGeometry x="5.28" y="5.970588235294118" width="18.48" height="18.48" as="geometry" />
        </mxCell>
        <mxCell id="ZhGtr3n9az-LHntfUs51-18" value="" style="ellipse;whiteSpace=wrap;html=1;aspect=fixed;" parent="ZhGtr3n9az-LHntfUs51-15" vertex="1">
          <mxGeometry x="29.040000000000003" y="5.970588235294118" width="18.48" height="18.48" as="geometry" />
        </mxCell>
        <mxCell id="ZhGtr3n9az-LHntfUs51-19" value="" style="ellipse;whiteSpace=wrap;html=1;aspect=fixed;" parent="ZhGtr3n9az-LHntfUs51-15" vertex="1">
          <mxGeometry x="5.28" y="32.838235294117645" width="18.48" height="18.48" as="geometry" />
        </mxCell>
        <mxCell id="ZhGtr3n9az-LHntfUs51-20" value="" style="ellipse;whiteSpace=wrap;html=1;aspect=fixed;" parent="ZhGtr3n9az-LHntfUs51-15" vertex="1">
          <mxGeometry x="29.040000000000003" y="32.838235294117645" width="18.48" height="18.48" as="geometry" />
        </mxCell>
        <mxCell id="ZhGtr3n9az-LHntfUs51-21" value="" style="group" parent="ZhGtr3n9az-LHntfUs51-14" vertex="1" connectable="0">
          <mxGeometry width="379.92" height="59.705882352941174" as="geometry" />
        </mxCell>
        <mxCell id="ZhGtr3n9az-LHntfUs51-22" value="" style="rounded=0;whiteSpace=wrap;html=1;" parent="ZhGtr3n9az-LHntfUs51-21" vertex="1">
          <mxGeometry width="211.20000000000002" height="59.705882352941174" as="geometry" />
        </mxCell>
        <mxCell id="ZhGtr3n9az-LHntfUs51-23" value="" style="ellipse;whiteSpace=wrap;html=1;aspect=fixed;" parent="ZhGtr3n9az-LHntfUs51-21" vertex="1">
          <mxGeometry x="5.28" y="5.970588235294118" width="42.24" height="42.24" as="geometry" />
        </mxCell>
        <mxCell id="ZhGtr3n9az-LHntfUs51-24" value="" style="ellipse;whiteSpace=wrap;html=1;aspect=fixed;" parent="ZhGtr3n9az-LHntfUs51-21" vertex="1">
          <mxGeometry x="58.080000000000005" y="5.970588235294118" width="42.24" height="42.24" as="geometry" />
        </mxCell>
        <mxCell id="ZhGtr3n9az-LHntfUs51-25" value="" style="ellipse;whiteSpace=wrap;html=1;aspect=fixed;" parent="ZhGtr3n9az-LHntfUs51-21" vertex="1">
          <mxGeometry x="110.88000000000001" y="5.970588235294118" width="42.24" height="42.24" as="geometry" />
        </mxCell>
        <mxCell id="ZhGtr3n9az-LHntfUs51-26" value="" style="ellipse;whiteSpace=wrap;html=1;aspect=fixed;" parent="ZhGtr3n9az-LHntfUs51-21" vertex="1">
          <mxGeometry x="163.68" y="5.970588235294118" width="42.24" height="42.24" as="geometry" />
        </mxCell>
        <mxCell id="ZhGtr3n9az-LHntfUs51-27" value="" style="group" parent="ZhGtr3n9az-LHntfUs51-21" vertex="1" connectable="0">
          <mxGeometry y="-69.25882352941176" width="379.92" height="59.705882352941174" as="geometry" />
        </mxCell>
        <mxCell id="ZhGtr3n9az-LHntfUs51-28" value="" style="group" parent="ZhGtr3n9az-LHntfUs51-27" vertex="1" connectable="0">
          <mxGeometry x="211.20000000000002" width="52.800000000000004" height="59.705882352941174" as="geometry" />
        </mxCell>
        <mxCell id="ZhGtr3n9az-LHntfUs51-29" value="" style="rounded=0;whiteSpace=wrap;html=1;" parent="ZhGtr3n9az-LHntfUs51-28" vertex="1">
          <mxGeometry width="52.800000000000004" height="59.705882352941174" as="geometry" />
        </mxCell>
        <mxCell id="ZhGtr3n9az-LHntfUs51-30" value="" style="ellipse;whiteSpace=wrap;html=1;aspect=fixed;" parent="ZhGtr3n9az-LHntfUs51-28" vertex="1">
          <mxGeometry x="5.28" y="5.970588235294118" width="18.48" height="18.48" as="geometry" />
        </mxCell>
        <mxCell id="ZhGtr3n9az-LHntfUs51-31" value="" style="ellipse;whiteSpace=wrap;html=1;aspect=fixed;" parent="ZhGtr3n9az-LHntfUs51-28" vertex="1">
          <mxGeometry x="29.040000000000003" y="5.970588235294118" width="18.48" height="18.48" as="geometry" />
        </mxCell>
        <mxCell id="ZhGtr3n9az-LHntfUs51-32" value="" style="ellipse;whiteSpace=wrap;html=1;aspect=fixed;" parent="ZhGtr3n9az-LHntfUs51-28" vertex="1">
          <mxGeometry x="5.28" y="32.838235294117645" width="18.48" height="18.48" as="geometry" />
        </mxCell>
        <mxCell id="ZhGtr3n9az-LHntfUs51-33" value="" style="ellipse;whiteSpace=wrap;html=1;aspect=fixed;" parent="ZhGtr3n9az-LHntfUs51-28" vertex="1">
          <mxGeometry x="29.040000000000003" y="32.838235294117645" width="18.48" height="18.48" as="geometry" />
        </mxCell>
        <mxCell id="ZhGtr3n9az-LHntfUs51-34" value="" style="group" parent="ZhGtr3n9az-LHntfUs51-27" vertex="1" connectable="0">
          <mxGeometry width="379.92" height="59.705882352941174" as="geometry" />
        </mxCell>
        <mxCell id="ZhGtr3n9az-LHntfUs51-35" value="" style="rounded=0;whiteSpace=wrap;html=1;" parent="ZhGtr3n9az-LHntfUs51-34" vertex="1">
          <mxGeometry width="211.20000000000002" height="59.705882352941174" as="geometry" />
        </mxCell>
        <mxCell id="ZhGtr3n9az-LHntfUs51-36" value="" style="ellipse;whiteSpace=wrap;html=1;aspect=fixed;" parent="ZhGtr3n9az-LHntfUs51-34" vertex="1">
          <mxGeometry x="5.28" y="5.970588235294118" width="42.24" height="42.24" as="geometry" />
        </mxCell>
        <mxCell id="ZhGtr3n9az-LHntfUs51-37" value="" style="ellipse;whiteSpace=wrap;html=1;aspect=fixed;" parent="ZhGtr3n9az-LHntfUs51-34" vertex="1">
          <mxGeometry x="58.080000000000005" y="5.970588235294118" width="42.24" height="42.24" as="geometry" />
        </mxCell>
        <mxCell id="ZhGtr3n9az-LHntfUs51-38" value="" style="ellipse;whiteSpace=wrap;html=1;aspect=fixed;" parent="ZhGtr3n9az-LHntfUs51-34" vertex="1">
          <mxGeometry x="110.88000000000001" y="5.970588235294118" width="42.24" height="42.24" as="geometry" />
        </mxCell>
        <mxCell id="ZhGtr3n9az-LHntfUs51-39" value="" style="ellipse;whiteSpace=wrap;html=1;aspect=fixed;" parent="ZhGtr3n9az-LHntfUs51-34" vertex="1">
          <mxGeometry x="163.68" y="5.970588235294118" width="42.24" height="42.24" as="geometry" />
        </mxCell>
        <mxCell id="ZhGtr3n9az-LHntfUs51-40" value="" style="group" parent="ZhGtr3n9az-LHntfUs51-34" vertex="1" connectable="0">
          <mxGeometry y="-70.45294117647059" width="379.92" height="59.705882352941174" as="geometry" />
        </mxCell>
        <mxCell id="ZhGtr3n9az-LHntfUs51-41" value="" style="group" parent="ZhGtr3n9az-LHntfUs51-40" vertex="1" connectable="0">
          <mxGeometry x="211.20000000000002" width="52.800000000000004" height="59.705882352941174" as="geometry" />
        </mxCell>
        <mxCell id="ZhGtr3n9az-LHntfUs51-42" value="" style="rounded=0;whiteSpace=wrap;html=1;" parent="ZhGtr3n9az-LHntfUs51-41" vertex="1">
          <mxGeometry width="52.800000000000004" height="59.705882352941174" as="geometry" />
        </mxCell>
        <mxCell id="ZhGtr3n9az-LHntfUs51-43" value="" style="ellipse;whiteSpace=wrap;html=1;aspect=fixed;" parent="ZhGtr3n9az-LHntfUs51-41" vertex="1">
          <mxGeometry x="5.28" y="5.970588235294118" width="18.48" height="18.48" as="geometry" />
        </mxCell>
        <mxCell id="ZhGtr3n9az-LHntfUs51-44" value="" style="ellipse;whiteSpace=wrap;html=1;aspect=fixed;" parent="ZhGtr3n9az-LHntfUs51-41" vertex="1">
          <mxGeometry x="29.040000000000003" y="5.970588235294118" width="18.48" height="18.48" as="geometry" />
        </mxCell>
        <mxCell id="ZhGtr3n9az-LHntfUs51-45" value="" style="ellipse;whiteSpace=wrap;html=1;aspect=fixed;" parent="ZhGtr3n9az-LHntfUs51-41" vertex="1">
          <mxGeometry x="5.28" y="32.838235294117645" width="18.48" height="18.48" as="geometry" />
        </mxCell>
        <mxCell id="ZhGtr3n9az-LHntfUs51-46" value="" style="ellipse;whiteSpace=wrap;html=1;aspect=fixed;" parent="ZhGtr3n9az-LHntfUs51-41" vertex="1">
          <mxGeometry x="29.040000000000003" y="32.838235294117645" width="18.48" height="18.48" as="geometry" />
        </mxCell>
        <mxCell id="ZhGtr3n9az-LHntfUs51-47" value="" style="group" parent="ZhGtr3n9az-LHntfUs51-40" vertex="1" connectable="0">
          <mxGeometry width="379.92" height="59.705882352941174" as="geometry" />
        </mxCell>
        <mxCell id="ZhGtr3n9az-LHntfUs51-48" value="" style="rounded=0;whiteSpace=wrap;html=1;" parent="ZhGtr3n9az-LHntfUs51-47" vertex="1">
          <mxGeometry width="211.20000000000002" height="59.705882352941174" as="geometry" />
        </mxCell>
        <mxCell id="ZhGtr3n9az-LHntfUs51-49" value="" style="ellipse;whiteSpace=wrap;html=1;aspect=fixed;" parent="ZhGtr3n9az-LHntfUs51-47" vertex="1">
          <mxGeometry x="5.28" y="5.970588235294118" width="42.24" height="42.24" as="geometry" />
        </mxCell>
        <mxCell id="ZhGtr3n9az-LHntfUs51-50" value="" style="ellipse;whiteSpace=wrap;html=1;aspect=fixed;" parent="ZhGtr3n9az-LHntfUs51-47" vertex="1">
          <mxGeometry x="58.080000000000005" y="5.970588235294118" width="42.24" height="42.24" as="geometry" />
        </mxCell>
        <mxCell id="ZhGtr3n9az-LHntfUs51-51" value="" style="ellipse;whiteSpace=wrap;html=1;aspect=fixed;" parent="ZhGtr3n9az-LHntfUs51-47" vertex="1">
          <mxGeometry x="110.88000000000001" y="5.970588235294118" width="42.24" height="42.24" as="geometry" />
        </mxCell>
        <mxCell id="ZhGtr3n9az-LHntfUs51-52" value="" style="ellipse;whiteSpace=wrap;html=1;aspect=fixed;" parent="ZhGtr3n9az-LHntfUs51-47" vertex="1">
          <mxGeometry x="163.68" y="5.970588235294118" width="42.24" height="42.24" as="geometry" />
        </mxCell>
        <mxCell id="ZhGtr3n9az-LHntfUs51-94" value="" style="ellipse;whiteSpace=wrap;html=1;aspect=fixed;" parent="ZhGtr3n9az-LHntfUs51-47" vertex="1">
          <mxGeometry x="337.68" y="5.970588235294118" width="42.24" height="42.24" as="geometry" />
        </mxCell>
        <mxCell id="ZhGtr3n9az-LHntfUs51-53" value="" style="group" parent="ZhGtr3n9az-LHntfUs51-93" vertex="1" connectable="0">
          <mxGeometry y="71.6470588235294" width="264" height="59.705882352941174" as="geometry" />
        </mxCell>
        <mxCell id="ZhGtr3n9az-LHntfUs51-54" value="" style="group" parent="ZhGtr3n9az-LHntfUs51-53" vertex="1" connectable="0">
          <mxGeometry x="211.20000000000002" width="52.800000000000004" height="59.705882352941174" as="geometry" />
        </mxCell>
        <mxCell id="ZhGtr3n9az-LHntfUs51-55" value="" style="rounded=0;whiteSpace=wrap;html=1;" parent="ZhGtr3n9az-LHntfUs51-54" vertex="1">
          <mxGeometry width="52.800000000000004" height="59.705882352941174" as="geometry" />
        </mxCell>
        <mxCell id="ZhGtr3n9az-LHntfUs51-56" value="" style="ellipse;whiteSpace=wrap;html=1;aspect=fixed;" parent="ZhGtr3n9az-LHntfUs51-54" vertex="1">
          <mxGeometry x="5.28" y="5.970588235294118" width="18.48" height="18.48" as="geometry" />
        </mxCell>
        <mxCell id="ZhGtr3n9az-LHntfUs51-57" value="" style="ellipse;whiteSpace=wrap;html=1;aspect=fixed;" parent="ZhGtr3n9az-LHntfUs51-54" vertex="1">
          <mxGeometry x="29.040000000000003" y="5.970588235294118" width="18.48" height="18.48" as="geometry" />
        </mxCell>
        <mxCell id="ZhGtr3n9az-LHntfUs51-58" value="" style="ellipse;whiteSpace=wrap;html=1;aspect=fixed;" parent="ZhGtr3n9az-LHntfUs51-54" vertex="1">
          <mxGeometry x="5.28" y="32.838235294117645" width="18.48" height="18.48" as="geometry" />
        </mxCell>
        <mxCell id="ZhGtr3n9az-LHntfUs51-59" value="" style="ellipse;whiteSpace=wrap;html=1;aspect=fixed;" parent="ZhGtr3n9az-LHntfUs51-54" vertex="1">
          <mxGeometry x="29.040000000000003" y="32.838235294117645" width="18.48" height="18.48" as="geometry" />
        </mxCell>
        <mxCell id="ZhGtr3n9az-LHntfUs51-60" value="" style="group" parent="ZhGtr3n9az-LHntfUs51-53" vertex="1" connectable="0">
          <mxGeometry width="211.20000000000002" height="59.705882352941174" as="geometry" />
        </mxCell>
        <mxCell id="ZhGtr3n9az-LHntfUs51-61" value="" style="rounded=0;whiteSpace=wrap;html=1;" parent="ZhGtr3n9az-LHntfUs51-60" vertex="1">
          <mxGeometry width="211.20000000000002" height="59.705882352941174" as="geometry" />
        </mxCell>
        <mxCell id="ZhGtr3n9az-LHntfUs51-62" value="" style="ellipse;whiteSpace=wrap;html=1;aspect=fixed;" parent="ZhGtr3n9az-LHntfUs51-60" vertex="1">
          <mxGeometry x="5.28" y="5.970588235294118" width="42.24" height="42.24" as="geometry" />
        </mxCell>
        <mxCell id="ZhGtr3n9az-LHntfUs51-63" value="" style="ellipse;whiteSpace=wrap;html=1;aspect=fixed;" parent="ZhGtr3n9az-LHntfUs51-60" vertex="1">
          <mxGeometry x="58.080000000000005" y="5.970588235294118" width="42.24" height="42.24" as="geometry" />
        </mxCell>
        <mxCell id="ZhGtr3n9az-LHntfUs51-64" value="" style="ellipse;whiteSpace=wrap;html=1;aspect=fixed;" parent="ZhGtr3n9az-LHntfUs51-60" vertex="1">
          <mxGeometry x="110.88000000000001" y="5.970588235294118" width="42.24" height="42.24" as="geometry" />
        </mxCell>
        <mxCell id="ZhGtr3n9az-LHntfUs51-65" value="" style="ellipse;whiteSpace=wrap;html=1;aspect=fixed;" parent="ZhGtr3n9az-LHntfUs51-60" vertex="1">
          <mxGeometry x="163.68" y="5.970588235294118" width="42.24" height="42.24" as="geometry" />
        </mxCell>
        <mxCell id="ZhGtr3n9az-LHntfUs51-80" value="" style="group" parent="ZhGtr3n9az-LHntfUs51-93" vertex="1" connectable="0">
          <mxGeometry y="143.2941176470588" width="264" height="59.705882352941174" as="geometry" />
        </mxCell>
        <mxCell id="ZhGtr3n9az-LHntfUs51-81" value="" style="group" parent="ZhGtr3n9az-LHntfUs51-80" vertex="1" connectable="0">
          <mxGeometry x="211.20000000000002" width="52.800000000000004" height="59.705882352941174" as="geometry" />
        </mxCell>
        <mxCell id="ZhGtr3n9az-LHntfUs51-82" value="" style="rounded=0;whiteSpace=wrap;html=1;" parent="ZhGtr3n9az-LHntfUs51-81" vertex="1">
          <mxGeometry width="52.800000000000004" height="59.705882352941174" as="geometry" />
        </mxCell>
        <mxCell id="ZhGtr3n9az-LHntfUs51-83" value="" style="ellipse;whiteSpace=wrap;html=1;aspect=fixed;" parent="ZhGtr3n9az-LHntfUs51-81" vertex="1">
          <mxGeometry x="5.28" y="5.970588235294118" width="18.48" height="18.48" as="geometry" />
        </mxCell>
        <mxCell id="ZhGtr3n9az-LHntfUs51-84" value="" style="ellipse;whiteSpace=wrap;html=1;aspect=fixed;" parent="ZhGtr3n9az-LHntfUs51-81" vertex="1">
          <mxGeometry x="29.040000000000003" y="5.970588235294118" width="18.48" height="18.48" as="geometry" />
        </mxCell>
        <mxCell id="ZhGtr3n9az-LHntfUs51-85" value="" style="ellipse;whiteSpace=wrap;html=1;aspect=fixed;" parent="ZhGtr3n9az-LHntfUs51-81" vertex="1">
          <mxGeometry x="5.28" y="32.838235294117645" width="18.48" height="18.48" as="geometry" />
        </mxCell>
        <mxCell id="ZhGtr3n9az-LHntfUs51-86" value="" style="ellipse;whiteSpace=wrap;html=1;aspect=fixed;" parent="ZhGtr3n9az-LHntfUs51-81" vertex="1">
          <mxGeometry x="29.040000000000003" y="32.838235294117645" width="18.48" height="18.48" as="geometry" />
        </mxCell>
        <mxCell id="ZhGtr3n9az-LHntfUs51-87" value="" style="group" parent="ZhGtr3n9az-LHntfUs51-80" vertex="1" connectable="0">
          <mxGeometry width="211.20000000000002" height="59.705882352941174" as="geometry" />
        </mxCell>
        <mxCell id="ZhGtr3n9az-LHntfUs51-88" value="" style="rounded=0;whiteSpace=wrap;html=1;" parent="ZhGtr3n9az-LHntfUs51-87" vertex="1">
          <mxGeometry width="211.20000000000002" height="59.705882352941174" as="geometry" />
        </mxCell>
        <mxCell id="ZhGtr3n9az-LHntfUs51-89" value="" style="ellipse;whiteSpace=wrap;html=1;aspect=fixed;" parent="ZhGtr3n9az-LHntfUs51-87" vertex="1">
          <mxGeometry x="5.28" y="5.970588235294118" width="42.24" height="42.24" as="geometry" />
        </mxCell>
        <mxCell id="ZhGtr3n9az-LHntfUs51-90" value="" style="ellipse;whiteSpace=wrap;html=1;aspect=fixed;" parent="ZhGtr3n9az-LHntfUs51-87" vertex="1">
          <mxGeometry x="58.080000000000005" y="5.970588235294118" width="42.24" height="42.24" as="geometry" />
        </mxCell>
        <mxCell id="ZhGtr3n9az-LHntfUs51-91" value="" style="ellipse;whiteSpace=wrap;html=1;aspect=fixed;" parent="ZhGtr3n9az-LHntfUs51-87" vertex="1">
          <mxGeometry x="110.88000000000001" y="5.970588235294118" width="42.24" height="42.24" as="geometry" />
        </mxCell>
        <mxCell id="ZhGtr3n9az-LHntfUs51-92" value="" style="ellipse;whiteSpace=wrap;html=1;aspect=fixed;" parent="ZhGtr3n9az-LHntfUs51-87" vertex="1">
          <mxGeometry x="163.68" y="5.970588235294118" width="42.24" height="42.24" as="geometry" />
        </mxCell>
        <mxCell id="ZhGtr3n9az-LHntfUs51-97" value="" style="ellipse;whiteSpace=wrap;html=1;aspect=fixed;" parent="c6tONa4OQSoYcZHLHS9h-150" vertex="1">
          <mxGeometry x="364" y="164.00470588235294" width="42.24" height="42.24" as="geometry" />
        </mxCell>
        <mxCell id="ZhGtr3n9az-LHntfUs51-113" value="" style="group" parent="c6tONa4OQSoYcZHLHS9h-150" vertex="1" connectable="0">
          <mxGeometry x="516" y="19.96" width="284" height="50" as="geometry" />
        </mxCell>
        <mxCell id="ZhGtr3n9az-LHntfUs51-120" value="" style="group" parent="ZhGtr3n9az-LHntfUs51-113" vertex="1" connectable="0">
          <mxGeometry width="284" height="50" as="geometry" />
        </mxCell>
        <mxCell id="ZhGtr3n9az-LHntfUs51-121" value="" style="rounded=0;whiteSpace=wrap;html=1;" parent="ZhGtr3n9az-LHntfUs51-120" vertex="1">
          <mxGeometry width="227.2" height="50" as="geometry" />
        </mxCell>
        <mxCell id="ZhGtr3n9az-LHntfUs51-122" value="" style="ellipse;whiteSpace=wrap;html=1;aspect=fixed;" parent="ZhGtr3n9az-LHntfUs51-120" vertex="1">
          <mxGeometry x="5.68" y="5" width="40" height="40" as="geometry" />
        </mxCell>
        <mxCell id="ZhGtr3n9az-LHntfUs51-123" value="" style="ellipse;whiteSpace=wrap;html=1;aspect=fixed;" parent="ZhGtr3n9az-LHntfUs51-120" vertex="1">
          <mxGeometry x="62.48" y="5" width="40" height="40" as="geometry" />
        </mxCell>
        <mxCell id="ZhGtr3n9az-LHntfUs51-124" value="" style="ellipse;whiteSpace=wrap;html=1;aspect=fixed;" parent="ZhGtr3n9az-LHntfUs51-120" vertex="1">
          <mxGeometry x="119.27999999999999" y="5" width="40" height="40" as="geometry" />
        </mxCell>
        <mxCell id="ZhGtr3n9az-LHntfUs51-125" value="" style="ellipse;whiteSpace=wrap;html=1;aspect=fixed;" parent="ZhGtr3n9az-LHntfUs51-120" vertex="1">
          <mxGeometry x="176.07999999999998" y="5" width="40" height="40" as="geometry" />
        </mxCell>
        <mxCell id="ZhGtr3n9az-LHntfUs51-166" value="Clear" style="rounded=1;whiteSpace=wrap;html=1;" parent="c6tONa4OQSoYcZHLHS9h-150" vertex="1">
          <mxGeometry x="456" y="80" width="164" height="30" as="geometry" />
        </mxCell>
        <mxCell id="ZhGtr3n9az-LHntfUs51-167" value="Submit" style="rounded=1;whiteSpace=wrap;html=1;" parent="c6tONa4OQSoYcZHLHS9h-150" vertex="1">
          <mxGeometry x="630" y="80" width="160" height="30" as="geometry" />
        </mxCell>
        <mxCell id="ZhGtr3n9az-LHntfUs51-168" value="Lorem ipsum dolor sit amet" style="text;html=1;align=center;verticalAlign=middle;whiteSpace=wrap;rounded=0;strokeColor=default;" parent="c6tONa4OQSoYcZHLHS9h-150" vertex="1">
          <mxGeometry x="446" y="134" width="334" height="296" as="geometry" />
        </mxCell>
        <mxCell id="c6tONa4OQSoYcZHLHS9h-174" value="" style="endArrow=classic;html=1;rounded=0;fontSize=10;entryX=0.235;entryY=-0.006;entryDx=0;entryDy=0;entryPerimeter=0;" parent="1" source="c6tONa4OQSoYcZHLHS9h-55" target="c6tONa4OQSoYcZHLHS9h-151" edge="1">
          <mxGeometry width="50" height="50" relative="1" as="geometry">
            <mxPoint x="350" y="890" as="sourcePoint" />
            <mxPoint x="400" y="840" as="targetPoint" />
          </mxGeometry>
        </mxCell>
        <mxCell id="ZhGtr3n9az-LHntfUs51-96" value="" style="ellipse;whiteSpace=wrap;html=1;aspect=fixed;" parent="1" vertex="1">
          <mxGeometry x="375.68" y="1145.3747058823528" width="42.24" height="42.24" as="geometry" />
        </mxCell>
        <mxCell id="ZhGtr3n9az-LHntfUs51-100" value="" style="ellipse;whiteSpace=wrap;html=1;aspect=fixed;" parent="1" vertex="1">
          <mxGeometry x="375.68" y="1213.8517647058825" width="42.24" height="42.24" as="geometry" />
        </mxCell>
        <mxCell id="ZhGtr3n9az-LHntfUs51-102" value="" style="ellipse;whiteSpace=wrap;html=1;aspect=fixed;" parent="1" vertex="1">
          <mxGeometry x="375.68" y="1289.0917647058823" width="42.24" height="42.24" as="geometry" />
        </mxCell>
        <mxCell id="ZhGtr3n9az-LHntfUs51-106" value="" style="ellipse;whiteSpace=wrap;html=1;aspect=fixed;" parent="1" vertex="1">
          <mxGeometry x="375.68" y="1360.3317647058823" width="42.24" height="42.24" as="geometry" />
        </mxCell>
        <mxCell id="ZhGtr3n9az-LHntfUs51-109" value="" style="ellipse;whiteSpace=wrap;html=1;aspect=fixed;" parent="1" vertex="1">
          <mxGeometry x="375.68" y="1431.5717647058823" width="42.24" height="42.24" as="geometry" />
        </mxCell>
        <mxCell id="ZgCFhsU79qnRdnPAR6Uo-2" value="" style="group" vertex="1" connectable="0" parent="1">
          <mxGeometry x="427" y="260" width="400" height="225" as="geometry" />
        </mxCell>
        <mxCell id="ZgCFhsU79qnRdnPAR6Uo-3" value="" style="whiteSpace=wrap;html=1;aspect=fixed;" vertex="1" parent="ZgCFhsU79qnRdnPAR6Uo-2">
          <mxGeometry width="400" height="225" as="geometry" />
        </mxCell>
        <mxCell id="ZgCFhsU79qnRdnPAR6Uo-4" value="" style="ellipse;whiteSpace=wrap;html=1;" vertex="1" parent="ZgCFhsU79qnRdnPAR6Uo-2">
          <mxGeometry x="335" y="170" width="40" height="40" as="geometry" />
        </mxCell>
        <mxCell id="ZgCFhsU79qnRdnPAR6Uo-5" value="" style="ellipse;whiteSpace=wrap;html=1;" vertex="1" parent="ZgCFhsU79qnRdnPAR6Uo-2">
          <mxGeometry x="40" y="200" width="20" height="20" as="geometry" />
        </mxCell>
        <mxCell id="ZgCFhsU79qnRdnPAR6Uo-6" value="" style="ellipse;whiteSpace=wrap;html=1;" vertex="1" parent="ZgCFhsU79qnRdnPAR6Uo-2">
          <mxGeometry x="10" y="7.5" width="40" height="40" as="geometry" />
        </mxCell>
        <mxCell id="ZgCFhsU79qnRdnPAR6Uo-7" value="" style="ellipse;whiteSpace=wrap;html=1;" vertex="1" parent="ZgCFhsU79qnRdnPAR6Uo-2">
          <mxGeometry x="340" y="80" width="30" height="30" as="geometry" />
        </mxCell>
        <mxCell id="ZgCFhsU79qnRdnPAR6Uo-8" value="" style="ellipse;whiteSpace=wrap;html=1;" vertex="1" parent="ZgCFhsU79qnRdnPAR6Uo-2">
          <mxGeometry x="340" y="17.5" width="20" height="20" as="geometry" />
        </mxCell>
        <mxCell id="ZgCFhsU79qnRdnPAR6Uo-9" value="" style="ellipse;whiteSpace=wrap;html=1;" vertex="1" parent="ZgCFhsU79qnRdnPAR6Uo-2">
          <mxGeometry x="328" y="137.5" width="20" height="20" as="geometry" />
        </mxCell>
        <mxCell id="ZgCFhsU79qnRdnPAR6Uo-10" value="" style="ellipse;whiteSpace=wrap;html=1;" vertex="1" parent="ZgCFhsU79qnRdnPAR6Uo-2">
          <mxGeometry x="130" y="195" width="30" height="30" as="geometry" />
        </mxCell>
        <mxCell id="ZgCFhsU79qnRdnPAR6Uo-11" value="" style="ellipse;whiteSpace=wrap;html=1;" vertex="1" parent="ZgCFhsU79qnRdnPAR6Uo-2">
          <mxGeometry x="270" y="184.5" width="30" height="30" as="geometry" />
        </mxCell>
        <mxCell id="ZgCFhsU79qnRdnPAR6Uo-12" value="" style="ellipse;whiteSpace=wrap;html=1;" vertex="1" parent="ZgCFhsU79qnRdnPAR6Uo-2">
          <mxGeometry x="110" width="20" height="20" as="geometry" />
        </mxCell>
        <mxCell id="ZgCFhsU79qnRdnPAR6Uo-13" value="" style="ellipse;whiteSpace=wrap;html=1;" vertex="1" parent="ZgCFhsU79qnRdnPAR6Uo-2">
          <mxGeometry x="220" width="30" height="30" as="geometry" />
        </mxCell>
        <mxCell id="ZgCFhsU79qnRdnPAR6Uo-14" value="" style="ellipse;whiteSpace=wrap;html=1;" vertex="1" parent="ZgCFhsU79qnRdnPAR6Uo-2">
          <mxGeometry x="10" y="117.5" width="30" height="30" as="geometry" />
        </mxCell>
        <mxCell id="ZgCFhsU79qnRdnPAR6Uo-15" value="" style="ellipse;whiteSpace=wrap;html=1;" vertex="1" parent="ZgCFhsU79qnRdnPAR6Uo-2">
          <mxGeometry x="40" y="70" width="20" height="20" as="geometry" />
        </mxCell>
        <mxCell id="ZgCFhsU79qnRdnPAR6Uo-16" value="" style="whiteSpace=wrap;html=1;aspect=fixed;" vertex="1" parent="ZgCFhsU79qnRdnPAR6Uo-2">
          <mxGeometry x="72" y="40.5" width="256" height="144" as="geometry" />
        </mxCell>
        <mxCell id="ZgCFhsU79qnRdnPAR6Uo-17" value="Enter Host" style="rounded=1;whiteSpace=wrap;html=1;" vertex="1" parent="ZgCFhsU79qnRdnPAR6Uo-2">
          <mxGeometry x="140" y="57.5" width="120" height="22.5" as="geometry" />
        </mxCell>
        <mxCell id="ZgCFhsU79qnRdnPAR6Uo-18" value="Enter Port" style="rounded=1;whiteSpace=wrap;html=1;" vertex="1" parent="ZgCFhsU79qnRdnPAR6Uo-2">
          <mxGeometry x="140" y="85" width="120" height="20" as="geometry" />
        </mxCell>
        <mxCell id="ZgCFhsU79qnRdnPAR6Uo-19" value="Back" style="rounded=1;whiteSpace=wrap;html=1;" vertex="1" parent="ZgCFhsU79qnRdnPAR6Uo-2">
          <mxGeometry x="140" y="147.5" width="120" height="30" as="geometry" />
        </mxCell>
        <mxCell id="ZgCFhsU79qnRdnPAR6Uo-20" value="Confirm" style="rounded=1;whiteSpace=wrap;html=1;" vertex="1" parent="ZgCFhsU79qnRdnPAR6Uo-2">
          <mxGeometry x="140" y="115" width="120" height="22.5" as="geometry" />
        </mxCell>
        <mxCell id="ZgCFhsU79qnRdnPAR6Uo-21" value="" style="endArrow=classic;startArrow=classic;html=1;rounded=0;fontSize=10;" edge="1" parent="1" source="c6tONa4OQSoYcZHLHS9h-55" target="ZgCFhsU79qnRdnPAR6Uo-3">
          <mxGeometry width="50" height="50" relative="1" as="geometry">
            <mxPoint x="210" y="530" as="sourcePoint" />
            <mxPoint x="210" y="485" as="targetPoint" />
          </mxGeometry>
        </mxCell>
        <mxCell id="ZgCFhsU79qnRdnPAR6Uo-23" value="" style="endArrow=classic;html=1;rounded=0;fontSize=10;" edge="1" parent="1" source="ZgCFhsU79qnRdnPAR6Uo-3" target="c6tONa4OQSoYcZHLHS9h-77">
          <mxGeometry width="50" height="50" relative="1" as="geometry">
            <mxPoint x="210" y="235.0000000000001" as="sourcePoint" />
            <mxPoint x="210" y="260" as="targetPoint" />
          </mxGeometry>
        </mxCell>
        <mxCell id="ZgCFhsU79qnRdnPAR6Uo-25" value="" style="endArrow=classic;html=1;rounded=0;fontSize=10;" edge="1" parent="1" source="c6tONa4OQSoYcZHLHS9h-77">
          <mxGeometry width="50" height="50" relative="1" as="geometry">
            <mxPoint x="210" y="755" as="sourcePoint" />
            <mxPoint x="200" y="880" as="targetPoint" />
          </mxGeometry>
        </mxCell>
      </root>
    </mxGraphModel>
  </diagram>
</mxfile>
